<?xml version="1.0" encoding="UTF-8"?>
<svg width="48" height="48" viewBox="0 0 48 48" fill="none" xmlns="http://www.w3.org/2000/svg">
  <!-- Background circle -->
  <circle cx="24" cy="24" r="22" fill="#2563eb" stroke="#1e40af" stroke-width="2"/>
  
  <!-- Truck icon in white -->
  <path d="M8 24h4V20c0-1.1.9-2 2-2h8c1.1 0 2 .9 2 2v4h2l4-4h6v12h-4c0 1.7-1.3 3-3 3s-3-1.3-3-3H18c0 1.7-1.3 3-3 3s-3-1.3-3-3H8v-8z" fill="white"/>
  <circle cx="15" cy="30" r="2" fill="#2563eb"/>
  <circle cx="33" cy="30" r="2" fill="#2563eb"/>
  
  <!-- "BF" letters -->
  <text x="24" y="16" font-family="Arial, sans-serif" font-size="8" font-weight="bold" fill="white" text-anchor="middle">BF</text>
</svg>